<?xml version="1.0"?>
<!--Icons from directory ""-->
<svg xmlns="http://www.w3.org/2000/svg" width="25" height="82" viewBox="0 0 25 82"><svg height="22" width="22" enable-background="new 0 0 26 26" viewBox="0 0 26 26" fill="rgb(255, 255, 255)" id="Menu" y="0"><path d="m0 4v2h26v-2h-26zm0 8v2h26v-2h-26zm0 8v2h26v-2h-26z"/></svg><svg id="mail" style="enable-background:new 0 0 14 14" height="17" viewBox="0 0 14 14" width="25" y="22" x="0px"><g fill="#e1e1fc"><path d="m7 9l-1.732-1.516-4.952 4.245c0.18 0.167 0.423 0.271 0.691 0.271h11.986c0.267 0 0.509-0.104 0.688-0.271l-4.949-4.245-1.732 1.516z"/><path d="m13.684 2.271c-0.18-0.168-0.422-0.271-0.691-0.271h-11.986c-0.267 0-0.509 0.104-0.689 0.273l6.682 5.727 6.684-5.729z"/><polygon points="0 2.878 0 11.186 4.833 7.079"/><polygon points="9.167 7.079 14 11.186 14 2.875"/></g></svg><svg id="search" style="enable-background:new 0 0 52.966 52.966" height="25" viewBox="0 0 52.966 52.966" width="20" y="39" x="0px"><path d="m51.704 51.273l-14.859-15.453c3.79-3.801 6.138-9.041 6.138-14.82 0-11.58-9.42-21-21-21s-21 9.42-21 21 9.42 21 21 21c5.083 0 9.748-1.817 13.384-4.832l14.895 15.491c0.196 0.205 0.458 0.307 0.721 0.307 0.25 0 0.499-0.093 0.693-0.279 0.398-0.383 0.41-1.016 0.028-1.414zm-29.721-11.273c-10.477 0-19-8.523-19-19s8.523-19 19-19 19 8.523 19 19-8.524 19-19 19z" fill="#fff"/></svg><svg id="user" style="enable-background:new 0 0 438.529 438.529" height="18" viewBox="-6 -3 450 445" width="18" y="64" x="0px"><g fill="#e1e1fc"><path d="m219.26 219.27c30.271 0 56.108-10.71 77.518-32.121 21.412-21.411 32.12-47.248 32.12-77.515 0-30.262-10.708-56.1-32.12-77.516-21.41-21.419-47.25-32.124-77.52-32.124s-56.1 10.705-77.51 32.115c-21.414 21.416-32.121 47.253-32.121 77.516 0 30.267 10.707 56.104 32.121 77.515 21.42 21.42 47.25 32.13 77.51 32.13z"/><path d="m419.26 335.04c-0.668-9.609-2.002-19.985-3.997-31.121-1.999-11.136-4.524-21.457-7.57-30.978-3.046-9.514-7.139-18.794-12.278-27.836-5.137-9.041-11.037-16.748-17.703-23.127-6.666-6.377-14.801-11.465-24.406-15.271-9.617-3.805-20.229-5.711-31.84-5.711-1.711 0-5.709 2.046-11.991 6.139-6.276 4.093-13.367 8.662-21.266 13.708-7.898 5.037-18.182 9.609-30.834 13.695-12.658 4.093-25.361 6.14-38.118 6.14-12.752 0-25.456-2.047-38.112-6.14-12.655-4.086-22.936-8.658-30.835-13.695-7.898-5.046-14.987-9.614-21.267-13.708-6.283-4.093-10.278-6.139-11.991-6.139-11.61 0-22.222 1.906-31.833 5.711-9.613 3.806-17.749 8.898-24.412 15.271-6.661 6.379-12.562 14.086-17.699 23.127-5.137 9.042-9.229 18.326-12.275 27.836-3.045 9.521-5.568 19.842-7.566 30.978-2 11.136-3.332 21.505-3.999 31.121-0.666 9.616-0.998 19.466-0.998 29.554 0 22.836 6.949 40.875 20.842 54.104 13.896 13.224 32.36 19.835 55.39 19.835h249.53c23.028 0 41.49-6.611 55.388-19.835 13.901-13.229 20.845-31.265 20.845-54.104 0-10.08-0.33-19.93-1-29.54z"/><path d="m219.26 219.27c30.271 0 56.108-10.71 77.518-32.121 21.412-21.411 32.12-47.248 32.12-77.515 0-30.262-10.708-56.1-32.12-77.516-21.41-21.419-47.25-32.124-77.52-32.124s-56.1 10.705-77.51 32.115c-21.414 21.416-32.121 47.253-32.121 77.516 0 30.267 10.707 56.104 32.121 77.515 21.42 21.42 47.25 32.13 77.51 32.13z"/></g></svg></svg>
